# Blender 3.1.1
# www.blender.org
mtllib Table 2 LessBugs.mtl
g Cube_Cube
v 10.185000 7.097000 -5.500000
v 10.185000 7.100000 -5.335000
v 10.500000 7.097000 -5.335000
v 10.185000 7.098498 -5.477957
v 10.342294 7.097000 -5.477957
v 10.335637 7.098434 -5.456544
v 10.342294 7.099599 -5.335000
v 10.185000 7.099599 -5.417392
v 10.335637 7.099210 -5.413905
v 10.457917 7.097000 -5.417392
v 10.457917 7.098498 -5.335000
v 10.417039 7.098434 -5.413905
v 10.185000 6.900000 -5.335000
v 10.185000 6.903000 -5.500000
v 10.500000 6.903000 -5.335000
v 10.185000 6.900401 -5.417392
v 10.342294 6.900401 -5.335000
v 10.335637 6.900790 -5.413905
v 10.342294 6.903000 -5.477957
v 10.185000 6.901502 -5.477957
v 10.335637 6.901566 -5.456544
v 10.457917 6.901502 -5.335000
v 10.457917 6.903000 -5.417392
v 10.417039 6.901566 -5.413905
v 10.500000 7.097000 5.335000
v 10.185000 7.100000 5.335000
v 10.185000 7.097000 5.500000
v 10.457917 7.098498 5.335000
v 10.457917 7.097000 5.417392
v 10.417039 7.098434 5.413905
v 10.185000 7.099599 5.417392
v 10.342294 7.099599 5.335000
v 10.335637 7.099210 5.413905
v 10.342294 7.097000 5.477957
v 10.185000 7.098498 5.477957
v 10.335637 7.098434 5.456544
v 10.500000 6.903000 5.335000
v 10.185000 6.903000 5.500000
v 10.185000 6.900000 5.335000
v 10.457917 6.903000 5.417392
v 10.457917 6.901502 5.335000
v 10.417039 6.901566 5.413905
v 10.185000 6.901502 5.477957
v 10.342294 6.903000 5.477957
v 10.335637 6.901566 5.456544
v 10.342294 6.900401 5.335000
v 10.185000 6.900401 5.417392
v 10.335637 6.900790 5.413905
v -10.185000 7.097000 -5.500000
v -10.500000 7.097000 -5.335000
v -10.185000 7.100000 -5.335000
v -10.342294 7.097000 -5.477957
v -10.185000 7.098498 -5.477957
v -10.335637 7.098434 -5.456544
v -10.457917 7.098498 -5.335000
v -10.457917 7.097000 -5.417392
v -10.417039 7.098434 -5.413905
v -10.185000 7.099599 -5.417392
v -10.342294 7.099599 -5.335000
v -10.335637 7.099210 -5.413905
v -10.500000 6.903000 -5.335000
v -10.185000 6.903000 -5.500000
v -10.185000 6.900000 -5.335000
v -10.457917 6.903000 -5.417392
v -10.457917 6.901502 -5.335000
v -10.417039 6.901566 -5.413905
v -10.185000 6.901502 -5.477957
v -10.342294 6.903000 -5.477957
v -10.335637 6.901566 -5.456544
v -10.342294 6.900401 -5.335000
v -10.185000 6.900401 -5.417392
v -10.335637 6.900790 -5.413905
v -10.500000 7.097000 5.335000
v -10.185000 7.097000 5.500000
v -10.185000 7.100000 5.335000
v -10.457917 7.097000 5.417392
v -10.457917 7.098498 5.335000
v -10.417039 7.098434 5.413905
v -10.185000 7.098498 5.477957
v -10.342294 7.097000 5.477957
v -10.335637 7.098434 5.456544
v -10.342294 7.099599 5.335000
v -10.185000 7.099599 5.417392
v -10.335637 7.099210 5.413905
v -10.185000 6.900000 5.335000
v -10.185000 6.903000 5.500000
v -10.500000 6.903000 5.335000
v -10.185000 6.900401 5.417392
v -10.342294 6.900401 5.335000
v -10.335637 6.900790 5.413905
v -10.342294 6.903000 5.477957
v -10.185000 6.901502 5.477957
v -10.335637 6.901566 5.456544
v -10.457917 6.901502 5.335000
v -10.457917 6.903000 5.417392
v -10.417039 6.901566 5.413905
vn -0.0000 -1.0000 -0.0000
vn -1.0000 -0.0000 -0.0000
vn -0.0000 -0.0000 1.0000
vn -0.0000 1.0000 -0.0000
vn 1.0000 -0.0000 -0.0000
vn 0.0095 0.9978 -0.0659
vn 0.0030 0.9998 -0.0182
vn 0.0026 1.0000 -0.0050
vn 0.0095 0.9999 -0.0057
vn 0.0346 0.9992 -0.0182
vn 0.0301 0.9979 -0.0575
vn 0.0095 0.9998 -0.0182
vn 0.0026 -1.0000 -0.0050
vn 0.0030 -0.9998 -0.0182
vn 0.0095 -0.9978 -0.0659
vn 0.0301 -0.9979 -0.0575
vn 0.0346 -0.9992 -0.0182
vn 0.0095 -0.9999 -0.0057
vn 0.0095 -0.9998 -0.0182
vn 0.0346 0.9992 0.0182
vn 0.0095 0.9999 0.0057
vn 0.0026 1.0000 0.0050
vn 0.0030 0.9998 0.0182
vn 0.0095 0.9978 0.0659
vn 0.0301 0.9979 0.0575
vn 0.0095 0.9998 0.0182
vn 0.0346 -0.9992 0.0182
vn 0.0301 -0.9979 0.0575
vn 0.0095 -0.9978 0.0659
vn 0.0030 -0.9998 0.0182
vn 0.0026 -1.0000 0.0050
vn 0.0095 -0.9999 0.0057
vn 0.0095 -0.9998 0.0182
vn -0.0095 0.9978 -0.0659
vn -0.0301 0.9979 -0.0575
vn -0.0346 0.9992 -0.0182
vn -0.0095 0.9999 -0.0057
vn -0.0026 1.0000 -0.0050
vn -0.0030 0.9998 -0.0182
vn -0.0095 0.9998 -0.0182
vn -0.0346 -0.9992 -0.0182
vn -0.0301 -0.9979 -0.0575
vn -0.0095 -0.9978 -0.0659
vn -0.0030 -0.9998 -0.0182
vn -0.0026 -1.0000 -0.0050
vn -0.0095 -0.9999 -0.0057
vn -0.0095 -0.9998 -0.0182
vn -0.0346 0.9992 0.0182
vn -0.0301 0.9979 0.0575
vn -0.0095 0.9978 0.0659
vn -0.0030 0.9998 0.0182
vn -0.0026 1.0000 0.0050
vn -0.0095 0.9999 0.0057
vn -0.0095 0.9998 0.0182
vn -0.0026 -1.0000 0.0050
vn -0.0030 -0.9998 0.0182
vn -0.0095 -0.9978 0.0659
vn -0.0301 -0.9979 0.0575
vn -0.0346 -0.9992 0.0182
vn -0.0095 -0.9999 0.0057
vn -0.0095 -0.9998 0.0182
vn -0.0025 -1.0000 -0.0000
vn -0.0095 -1.0000 -0.0000
vn -0.0356 -0.9994 -0.0000
vn -0.0000 -1.0000 -0.0049
vn -0.0000 -0.9998 -0.0182
vn -0.0000 -0.9977 -0.0678
vn 0.8906 -0.0000 -0.4549
vn 0.4640 -0.0000 -0.8858
vn 0.1388 -0.0000 -0.9903
vn -0.1388 -0.0000 0.9903
vn -0.4640 -0.0000 0.8858
vn -0.8906 -0.0000 0.4549
vn 0.1388 -0.0000 0.9903
vn 0.4640 -0.0000 0.8858
vn 0.8906 -0.0000 0.4549
vn -0.1388 -0.0000 -0.9903
vn -0.4640 -0.0000 -0.8858
vn -0.8906 -0.0000 -0.4549
vn -0.0000 1.0000 0.0049
vn -0.0000 0.9998 0.0182
vn -0.0000 0.9977 0.0678
vn 0.0025 1.0000 -0.0000
vn 0.0095 1.0000 -0.0000
vn 0.0356 0.9994 -0.0000
vn -0.0000 -1.0000 0.0049
vn -0.0000 -0.9998 0.0182
vn -0.0000 -0.9977 0.0678
vn -0.0025 1.0000 -0.0000
vn -0.0095 1.0000 -0.0000
vn -0.0356 0.9994 -0.0000
vn -0.0000 1.0000 -0.0049
vn -0.0000 0.9998 -0.0182
vn -0.0000 0.9977 -0.0678
vn 0.0025 -1.0000 -0.0000
vn 0.0095 -1.0000 -0.0000
vn 0.0356 -0.9994 -0.0000
vn -0.0000 -0.0000 -1.0000
vt 0.621250 0.496250
vt 0.628750 0.503750
vt 0.621250 0.503750
vt 0.623123 0.496250
vt 0.621250 0.500000
vt 0.621250 0.498123
vt 0.623043 0.500000
vt 0.623043 0.498043
vt 0.626877 0.503750
vt 0.628750 0.501877
vt 0.625000 0.496250
vt 0.626957 0.501957
vt 0.625000 0.498043
vt 0.621250 0.501877
vt 0.625000 0.503750
vt 0.623123 0.503750
vt 0.625000 0.501957
vt 0.623043 0.501957
vt 0.623043 0.500000
vt 0.371250 0.503750
vt 0.378750 0.496250
vt 0.378750 0.503750
vt 0.371250 0.501877
vt 0.375000 0.503750
vt 0.373123 0.503750
vt 0.375000 0.501957
vt 0.373043 0.501957
vt 0.378750 0.498123
vt 0.371250 0.500000
vt 0.376877 0.496250
vt 0.376957 0.498043
vt 0.373043 0.500000
vt 0.376877 0.503750
vt 0.378750 0.500000
vt 0.378750 0.501877
vt 0.376957 0.500000
vt 0.376957 0.501957
vt 0.375000 0.501957
vt 0.621250 0.746250
vt 0.628750 0.746250
vt 0.621250 0.753750
vt 0.623123 0.746250
vt 0.621250 0.750000
vt 0.621250 0.748123
vt 0.623043 0.750000
vt 0.623043 0.748043
vt 0.624499 0.753750
vt 0.628750 0.748123
vt 0.625000 0.753750
vt 0.625000 0.746250
vt 0.626877 0.746250
vt 0.626957 0.748043
vt 0.624012 0.751957
vt 0.625000 0.748043
vt 0.621250 0.751877
vt 0.625000 0.753750
vt 0.623123 0.753750
vt 0.625000 0.751957
vt 0.623043 0.751957
vt 0.623043 0.750000
vt 0.378750 0.746250
vt 0.378750 0.753750
vt 0.371250 0.746250
vt 0.378750 0.748123
vt 0.375000 0.746250
vt 0.376877 0.746250
vt 0.376957 0.748043
vt 0.375000 0.748043
vt 0.376957 0.750988
vt 0.371250 0.749499
vt 0.371250 0.750000
vt 0.376877 0.753750
vt 0.378750 0.750000
vt 0.378750 0.751877
vt 0.376957 0.750000
vt 0.376957 0.751957
vt 0.373043 0.749012
vt 0.375000 0.751957
vt 0.373123 0.746250
vt 0.371250 0.750000
vt 0.371250 0.748123
vt 0.373043 0.750000
vt 0.373043 0.748043
vt 0.375000 0.751957
vt 0.621250 0.253750
vt 0.621250 0.246250
vt 0.871250 0.503750
vt 0.621250 0.251877
vt 0.625000 0.253750
vt 0.623123 0.253750
vt 0.623043 0.251957
vt 0.625000 0.251957
vt 0.623043 0.249012
vt 0.623123 0.246250
vt 0.621250 0.250000
vt 0.621250 0.248123
vt 0.623043 0.248043
vt 0.623043 0.250000
vt 0.624499 0.253750
vt 0.871250 0.501877
vt 0.625000 0.253750
vt 0.873123 0.503750
vt 0.625000 0.246250
vt 0.873043 0.501957
vt 0.624012 0.251957
vt 0.625000 0.248043
vt 0.378750 0.246250
vt 0.378750 0.253750
vt 0.128750 0.503750
vt 0.378750 0.248123
vt 0.125000 0.503750
vt 0.376877 0.246250
vt 0.125000 0.501957
vt 0.376957 0.248043
vt 0.128750 0.500501
vt 0.128750 0.500000
vt 0.376877 0.253750
vt 0.378750 0.250000
vt 0.378750 0.251877
vt 0.376957 0.251957
vt 0.126957 0.500988
vt 0.376957 0.250000
vt 0.126877 0.503750
vt 0.128750 0.500000
vt 0.128750 0.501877
vt 0.126957 0.500000
vt 0.126957 0.501957
vt 0.375000 0.248043
vt 0.621250 0.003750
vt 0.621250 0.996250
vt 0.871250 0.746250
vt 0.621250 0.001877
vt 0.625000 0.003750
vt 0.623123 0.003750
vt 0.625000 0.001957
vt 0.623043 0.001957
vt 0.623123 0.996250
vt 0.621250 0.998123
vt 0.621250 0.000000
vt 0.623043 0.998043
vt 0.623043 0.000000
vt 0.624499 0.003750
vt 0.873123 0.746250
vt 0.625000 0.003750
vt 0.871250 0.748123
vt 0.625000 0.996250
vt 0.625000 0.998043
vt 0.873043 0.748043
vt 0.624012 0.001957
vt 0.625000 0.001957
vt 0.128750 0.746250
vt 0.378750 0.996250
vt 0.378750 0.003750
vt 0.128750 0.748123
vt 0.125000 0.746250
vt 0.126877 0.746250
vt 0.125000 0.748043
vt 0.126957 0.748043
vt 0.378750 0.000501
vt 0.378750 0.998123
vt 0.378750 0.000000
vt 0.128750 0.750000
vt 0.376877 0.996250
vt 0.376957 0.998043
vt 0.376957 0.000988
vt 0.126957 0.750000
vt 0.125501 0.746250
vt 0.125000 0.746250
vt 0.376877 0.003750
vt 0.378750 0.000000
vt 0.378750 0.001877
vt 0.376957 0.000000
vt 0.376957 0.001957
vt 0.125988 0.748043
vt 0.125000 0.748043
s 0
usemtl Material
f 63/109/1 13/20/1 39/63/1 85/151/1
f 87/153/2 73/129/2 50/86/2 61/107/2
f 38/62/3 27/41/3 74/130/3 86/152/3
f 2/2/4 51/87/4 75/131/4 26/40/4
f 15/22/5 3/3/5 25/39/5 37/61/5
f 1/1/6 4/4/6 6/8/6 5/6/6
f 4/4/7 8/11/7 9/13/7 6/8/7
f 2/2/8 7/9/8 9/12/8 8/10/8
f 7/9/9 11/15/9 12/17/9 9/12/9
f 3/3/10 10/14/10 12/18/10 11/16/10
f 10/14/11 5/5/11 6/7/11 12/18/11
f 6/8/12 9/13/12 12/19/12
f 13/20/13 16/23/13 18/27/13 17/25/13
f 16/23/14 20/29/14 21/32/14 18/27/14
f 14/21/15 19/28/15 21/31/15 20/30/15
f 19/28/16 23/34/16 24/36/16 21/31/16
f 15/22/17 22/33/17 24/37/17 23/35/17
f 22/33/18 17/24/18 18/26/18 24/37/18
f 18/27/19 21/32/19 24/38/19
f 25/39/20 28/42/20 30/46/20 29/44/20
f 28/42/21 32/50/21 33/54/21 30/46/21
f 26/40/22 31/48/22 33/52/22 32/51/22
f 31/47/23 35/56/23 36/58/23 33/53/23
f 27/41/24 34/55/24 36/59/24 35/57/24
f 34/55/25 29/43/25 30/45/25 36/59/25
f 30/46/26 33/54/26 36/60/26
f 37/61/27 40/64/27 42/67/27 41/66/27
f 40/64/28 44/73/28 45/75/28 42/67/28
f 38/62/29 43/72/29 45/76/29 44/74/29
f 43/70/30 47/80/30 48/82/30 45/77/30
f 39/63/31 46/79/31 48/83/31 47/81/31
f 46/79/32 41/65/32 42/68/32 48/83/32
f 42/69/33 45/78/33 48/84/33
f 49/85/34 52/88/34 54/91/34 53/90/34
f 52/88/35 56/95/35 57/98/35 54/91/35
f 50/86/36 55/94/36 57/97/36 56/96/36
f 55/94/37 59/103/37 60/106/37 57/97/37
f 51/87/38 58/100/38 60/104/38 59/102/38
f 58/99/39 53/89/39 54/92/39 60/105/39
f 54/93/40 57/98/40 60/106/40
f 61/107/41 64/110/41 66/114/41 65/112/41
f 64/110/42 68/118/42 69/122/42 66/114/42
f 62/108/43 67/117/43 69/120/43 68/119/43
f 67/115/44 71/124/44 72/126/44 69/121/44
f 63/109/45 70/123/45 72/127/45 71/125/45
f 70/123/46 65/111/46 66/113/46 72/127/46
f 66/114/47 69/122/47 72/128/47
f 73/129/48 76/132/48 78/136/48 77/134/48
f 76/132/49 80/139/49 81/141/49 78/136/49
f 74/130/50 79/137/50 81/140/50 80/138/50
f 79/137/51 83/146/51 84/147/51 81/140/51
f 75/131/52 82/143/52 84/148/52 83/145/52
f 82/142/53 77/133/53 78/135/53 84/149/53
f 78/136/54 81/141/54 84/150/54
f 85/151/55 88/154/55 90/158/55 89/156/55
f 88/154/56 92/162/56 93/166/56 90/158/56
f 86/152/57 91/160/57 93/164/57 92/163/57
f 91/159/58 95/170/58 96/172/58 93/165/58
f 87/153/59 94/169/59 96/173/59 95/171/59
f 94/167/60 89/155/60 90/157/60 96/174/60
f 90/158/61 93/166/61 96/175/61
f 63/109/62 85/151/62 89/156/62 70/123/62
f 70/123/63 89/156/63 94/168/63 65/111/63
f 65/112/64 94/169/64 87/153/64 61/107/64
f 13/20/65 63/109/65 71/125/65 16/23/65
f 16/23/66 71/125/66 67/116/66 20/29/66
f 20/30/67 67/117/67 62/108/67 14/21/67
f 3/3/68 15/22/68 23/35/68 10/14/68
f 10/14/69 23/35/69 19/28/69 5/6/69
f 5/6/70 19/28/70 14/21/70 1/1/70
f 86/152/71 74/130/71 80/138/71 91/160/71
f 91/161/72 80/139/72 76/132/72 95/171/72
f 95/171/73 76/132/73 73/129/73 87/153/73
f 27/41/74 38/62/74 44/74/74 34/55/74
f 34/55/75 44/74/75 40/64/75 29/44/75
f 29/44/76 40/64/76 37/61/76 25/39/76
f 49/85/77 62/108/77 68/119/77 52/88/77
f 52/88/78 68/119/78 64/110/78 56/96/78
f 56/96/79 64/110/79 61/107/79 50/86/79
f 26/40/80 75/131/80 83/145/80 31/48/80
f 31/49/81 83/146/81 79/137/81 35/57/81
f 35/57/82 79/137/82 74/130/82 27/41/82
f 2/2/83 26/40/83 32/51/83 7/9/83
f 7/9/84 32/51/84 28/42/84 11/16/84
f 11/16/85 28/42/85 25/39/85 3/3/85
f 85/151/86 39/63/86 47/81/86 88/154/86
f 88/154/87 47/81/87 43/71/87 92/162/87
f 92/163/88 43/72/88 38/62/88 86/152/88
f 75/131/89 51/87/89 59/102/89 82/143/89
f 82/144/90 59/103/90 55/94/90 77/134/90
f 77/134/91 55/94/91 50/86/91 73/129/91
f 51/87/92 2/2/92 8/10/92 58/100/92
f 58/101/93 8/11/93 4/4/93 53/90/93
f 53/90/94 4/4/94 1/1/94 49/85/94
f 39/63/95 13/20/95 17/25/95 46/79/95
f 46/79/96 17/25/96 22/33/96 41/66/96
f 41/66/97 22/33/97 15/22/97 37/61/97
f 62/108/98 49/85/98 1/1/98 14/21/98
g Cube.001_Cube.001
v -10.000000 0.100000 5.000000
v -10.000000 6.900000 5.000000
v -10.000000 0.100000 4.500000
v -10.000000 6.900000 4.500000
v -9.500000 0.100000 5.000000
v -9.500000 6.900000 5.000000
v -9.500000 0.100000 4.500000
v -9.500000 6.900000 4.500000
v 9.500000 0.100000 5.000000
v 9.500000 6.900000 5.000000
v 9.500000 0.100000 4.500000
v 9.500000 6.900000 4.500000
v 10.000000 0.100000 5.000000
v 10.000000 6.900000 5.000000
v 10.000000 0.100000 4.500000
v 10.000000 6.900000 4.500000
v -10.000000 0.100000 -4.500000
v -10.000000 6.900000 -4.500000
v -10.000000 0.100000 -5.000000
v -10.000000 6.900000 -5.000000
v -9.500000 0.100000 -4.500000
v -9.500000 6.900000 -4.500000
v -9.500000 0.100000 -5.000000
v -9.500000 6.900000 -5.000000
v 9.500000 0.100000 -4.500000
v 9.500000 6.900000 -4.500000
v 9.500000 0.100000 -5.000000
v 9.500000 6.900000 -5.000000
v 10.000000 0.100000 -4.500000
v 10.000000 6.900000 -4.500000
v 10.000000 0.100000 -5.000000
v 10.000000 6.900000 -5.000000
vn -1.0000 -0.0000 -0.0000
vn -0.0000 -0.0000 -1.0000
vn 1.0000 -0.0000 -0.0000
vn -0.0000 -0.0000 1.0000
vn -0.0000 -1.0000 -0.0000
vn -0.0000 1.0000 -0.0000
vt 0.375000 0.000000
vt 0.375000 1.000000
vt 0.125000 0.750000
vt 0.625000 0.000000
vt 0.625000 1.000000
vt 0.875000 0.750000
vt 0.375000 0.250000
vt 0.125000 0.500000
vt 0.625000 0.250000
vt 0.875000 0.500000
vt 0.375000 0.750000
vt 0.625000 0.750000
vt 0.375000 0.500000
vt 0.625000 0.500000
vt 0.375000 0.000000
vt 0.375000 1.000000
vt 0.125000 0.750000
vt 0.625000 0.000000
vt 0.625000 1.000000
vt 0.875000 0.750000
vt 0.375000 0.250000
vt 0.125000 0.500000
vt 0.625000 0.250000
vt 0.875000 0.500000
vt 0.375000 0.750000
vt 0.625000 0.750000
vt 0.375000 0.500000
vt 0.625000 0.500000
vt 0.375000 0.000000
vt 0.375000 1.000000
vt 0.125000 0.750000
vt 0.625000 0.000000
vt 0.625000 1.000000
vt 0.875000 0.750000
vt 0.375000 0.250000
vt 0.125000 0.500000
vt 0.625000 0.250000
vt 0.875000 0.500000
vt 0.375000 0.750000
vt 0.625000 0.750000
vt 0.375000 0.500000
vt 0.625000 0.500000
vt 0.375000 0.000000
vt 0.375000 1.000000
vt 0.125000 0.750000
vt 0.625000 0.000000
vt 0.625000 1.000000
vt 0.875000 0.750000
vt 0.375000 0.250000
vt 0.125000 0.500000
vt 0.625000 0.250000
vt 0.875000 0.500000
vt 0.375000 0.750000
vt 0.625000 0.750000
vt 0.375000 0.500000
vt 0.625000 0.500000
s 0
f 97/176/99 98/179/99 100/184/99 99/182/99
f 99/182/100 100/184/100 104/189/100 103/188/100
f 103/188/101 104/189/101 102/187/101 101/186/101
f 101/186/102 102/187/102 98/180/102 97/177/102
f 99/183/103 103/188/103 101/186/103 97/178/103
f 104/189/104 100/185/104 98/181/104 102/187/104
f 105/190/99 106/193/99 108/198/99 107/196/99
f 107/196/100 108/198/100 112/203/100 111/202/100
f 111/202/101 112/203/101 110/201/101 109/200/101
f 109/200/102 110/201/102 106/194/102 105/191/102
f 107/197/103 111/202/103 109/200/103 105/192/103
f 112/203/104 108/199/104 106/195/104 110/201/104
f 113/204/99 114/207/99 116/212/99 115/210/99
f 115/210/100 116/212/100 120/217/100 119/216/100
f 119/216/101 120/217/101 118/215/101 117/214/101
f 117/214/102 118/215/102 114/208/102 113/205/102
f 115/211/103 119/216/103 117/214/103 113/206/103
f 120/217/104 116/213/104 114/209/104 118/215/104
f 121/218/99 122/221/99 124/226/99 123/224/99
f 123/224/100 124/226/100 128/231/100 127/230/100
f 127/230/101 128/231/101 126/229/101 125/228/101
f 125/228/102 126/229/102 122/222/102 121/219/102
f 123/225/103 127/230/103 125/228/103 121/220/103
f 128/231/104 124/227/104 122/223/104 126/229/104
